<?xml version="1.0" encoding="utf-8"?>
<svg version="1.1" xmlns="http://www.w3.org/2000/svg" xmlns:xlink="http://www.w3.org/1999/xlink" height="1062.4" width="865.4000000000005">
  <defs>
    <path id="path-1" opacity="1" fill-rule="evenodd" d="M707.2000000000003,508 L707.2000000000003,935.7 C707.2000000000003,967 681.9000000000003,992.3 650.6000000000003,992.3 L318.2000000000003,992.3 C286.90000000000026,992.3 261.60000000000025,967 261.60000000000025,935.6999999999999 L261.60000000000025,87.1 C261.60000000000025,55.8 286.90000000000026,30.5 318.2000000000003,30.5 L650.6000000000003,30.5 C681.9000000000002,30.5 707.2000000000003,55.8 707.2000000000003,87.1 "/>
    <path id="path-2" opacity="1" fill-rule="evenodd" d="M625.4000000000005,1010.1999999999998 L551.9000000000005,908.3999999999999 C551.9000000000005,908.3999999999999 510.50000000000057,851.1999999999998 484.50000000000057,850.1999999999998 C484.3000000000005,865.1999999999998 485.3000000000005,972.7999999999997 489.90000000000055,1010.0999999999999 L625.4000000000005,1010.1999999999998Z"/>
    <path id="path-3" opacity="1" fill-rule="evenodd" d="M389.00000000000057,8.099999999999916 L579.8000000000005,8.099999999999916 C588.5000000000006,8.099999999999916 595.5000000000006,15.099999999999909 595.5000000000006,23.799999999999912 L595.5000000000006,47.89999999999992 C595.5000000000006,56.59999999999992 588.5000000000006,63.59999999999992 579.8000000000005,63.59999999999992 L389.00000000000057,63.59999999999992 C380.3000000000005,63.59999999999992 373.3000000000005,56.59999999999992 373.3000000000005,47.89999999999992 L373.3000000000005,23.799999999999912 C373.3000000000005,15.199999999999918 380.3000000000005,8.099999999999909 389.00000000000057,8.099999999999916Z"/>
    <path id="path-4" opacity="1" fill-rule="evenodd" d="M693.6000000000005,993.9000000000003 L707.2000000000005,993.9000000000003 L707.2000000000005,828.3000000000002 L592.6000000000005,809.3000000000002 L484.40000000000043,850.3000000000002 C489.50000000000045,861.9000000000002 516.4000000000004,938.9000000000002 574.1000000000005,1006.3000000000002 L693.5000000000005,1006.3000000000002 L693.6000000000005,993.9000000000003Z"/>
    <path id="path-5" opacity="1" fill-rule="evenodd" d="M452.5000000000003,587.7 C443.20000000000033,587.5 443.20000000000033,601.8000000000002 443.20000000000033,601.8000000000002 C438.70000000000033,588.4000000000001 340.5000000000003,344.10000000000014 340.5000000000003,344.10000000000014 C340.5000000000003,344.10000000000014 320.2000000000003,352.70000000000016 343.6000000000003,398.90000000000015 C336.0000000000003,403.40000000000015 314.9000000000003,420.3000000000001 323.6000000000003,447.50000000000017 C330.20000000000033,467.90000000000015 344.6000000000003,475.1000000000002 353.6000000000003,475.1000000000002 C352.1000000000003,490.40000000000015 384.80000000000035,646.7000000000003 389.1000000000003,654.2000000000003 C399.1000000000003,671.9000000000003 418.40000000000026,691.2000000000003 429.80000000000035,691.7000000000003 C448.0000000000004,692.6000000000001 492.80000000000035,668.7000000000003 503.9000000000004,656.2000000000003 C515.0000000000005,643.7000000000003 470.0000000000004,588.0000000000002 452.5000000000003,587.7Z"/>
    <path id="path-6" opacity="1" fill-rule="evenodd" d="M587.7000000000005,501.5000000000001 C543.4000000000005,462.0000000000001 435.3000000000005,556.6000000000001 437.40000000000055,573.0000000000001 C439.50000000000057,589.4000000000001 497.7000000000005,648.7000000000002 514.8000000000005,643.7000000000002 C531.9000000000005,638.7000000000002 622.6000000000005,532.5000000000001 587.7000000000005,501.5000000000001Z"/>
    <path id="path-7" opacity="1" fill-rule="evenodd" d="M707.2000000000005,508 C687.5000000000005,476.1 658.6000000000005,455.5 617.2000000000005,455.5 C473.50000000000057,455.5 469.40000000000043,829.5 484.40000000000043,850.3 C497.7000000000004,868.6999999999999 656.2000000000004,873.5 707.2000000000004,860.8 "/>
    <path id="path-8" opacity="1" fill-rule="evenodd" d="M707.2000000000003,644.5 L692.1000000000003,650.7 C693.4000000000002,655.5 699.2000000000003,682.4000000000001 707.2000000000003,712.1 "/>
    <path id="path-9" opacity="1" fill-rule="evenodd" d="M707.2,504.70000000000016 C697.2,497.3000000000002 687,494.3000000000002 677.6,498.20000000000016 C623.4,520.8000000000002 662,656.7000000000002 677.6,661.7000000000002 C682.6,663.3000000000002 694,661.7000000000002 707.2,658.2000000000002 "/>
    <path id="path-10" opacity="1" fill-rule="evenodd" d="M644.8000000000004,488.29999999999995 C644.8000000000004,500.19999999999993 578.9000000000004,502.79999999999995 578.9000000000004,488.29999999999995 L578.9000000000004,407.29999999999995 L644.8000000000004,407.29999999999995 L644.8000000000004,488.29999999999995Z"/>
    <ellipse id="ellipse-11" opacity="1" rx="61.20000000000009" ry="86.24999999999996" cx="604.2000000000004" cy="346.24999999999994"/>
    <ellipse id="ellipse-12" opacity="1" rx="18.9" ry="18.050000000000022" cx="645.9000000000003" cy="395.05"/>
    <path id="path-13" opacity="1" fill-rule="evenodd" d="M705.2000000000004,364.9 C705.2000000000004,353.9 694.9000000000004,341.79999999999995 693.0000000000003,328 C692.0000000000003,321 694.2000000000004,291.9 686.0000000000003,282 C669.0000000000003,261.6 659.0000000000003,265.8 646.0000000000003,261 C623.4000000000003,252.7 614.7000000000004,239 596.0000000000003,239 C574.8000000000003,239 566.2000000000004,250 551.0000000000003,250 C533.6000000000004,250 519.4000000000003,242 495.00000000000034,242 C482.00000000000034,242 465.00000000000034,259 465.00000000000034,274 C465.00000000000034,309.5 498.00000000000034,304.4 498.00000000000034,313 C498.00000000000034,319 496.00000000000034,323.8 496.00000000000034,332 C496.00000000000034,342.8 510.00000000000034,349 518.0000000000003,349 C542.4000000000003,349 545.6000000000004,346 545.6000000000004,346 C550.4000000000003,336.3 556.6000000000004,327.4 564.0000000000003,319.5 C565.0000000000003,318.5 580.8000000000003,329.6 606.6000000000004,330.5 C627.8000000000004,331.2 642.7000000000004,335.3 642.7000000000004,345.2 C642.7000000000004,352.2 640.1000000000004,372.9 640.3000000000004,378.7 C640.5000000000005,384.5 642.5000000000005,388.3 643.8000000000004,388.3 C645.1000000000004,388.3 645.8000000000004,386.40000000000003 654.0000000000005,386.40000000000003 C662.7000000000005,386.40000000000003 663.4000000000004,397.1 664.9000000000004,397.1 C673.7000000000004,397.1 705.2000000000004,390 705.2000000000004,364.9Z"/>
    <path id="path-14" opacity="1" fill-rule="evenodd" d="M315.3,230.79999999999995 L365.2,230.79999999999995 C379.99999999999994,230.79999999999995 391.99999999999994,242.79999999999995 391.99999999999994,257.59999999999997 L391.99999999999994,307.49999999999994 C391.99999999999994,322.29999999999995 379.99999999999994,334.29999999999995 365.2,334.29999999999995 L315.3,334.29999999999995 C300.5,334.29999999999995 288.5,322.29999999999995 288.5,307.49999999999994 L288.5,257.59999999999997 C288.5,242.79999999999995 300.5,230.79999999999995 315.3,230.79999999999995Z"/>
    <ellipse id="ellipse-15" opacity="1" rx="21.2" ry="21.2" cx="379.6000000000001" cy="239.10000000000008"/>
    <path id="path-16" opacity="1" fill-rule="evenodd" d="M316.5,0 L652.4000244140625,0 C697.5999755859375,0 734.300048828125,36.70000076293945 734.300048828125,81.9000015258789 L734.300048828125,940.7000122070312 C734.300048828125,985.9000244140625 697.5999755859375,1022.5999755859375 652.4000244140625,1022.5999755859375 L316.5,1022.5999755859375 C271.3000183105469,1022.5999755859375 234.60000610351562,985.9000244140625 234.60000610351562,940.7000122070312 L234.60000610351562,81.9000015258789 C234.60000610351562,36.70000076293945 271.3000183105469,0 316.5,0 L707.2000122070312,935.7000122070312 L707.2000122070312,87.0999984741211 C707.2000122070312,55.79999923706055 681.9000244140625,30.5 650.5999755859375,30.5 L318.20001220703125,30.5 C286.8999938964844,30.5 261.6000061035156,55.79999923706055 261.6000061035156,87.0999984741211 L261.6000061035156,935.7000122070312 C261.6000061035156,967 286.8999938964844,992.2999877929688 318.20001220703125,992.2999877929688 L650.5999755859375,992.2999877929688 C681.9000244140625,992.2999877929688 707.2000122070312,967 707.2000122070312,935.7000122070312 L316.5,0Z"/>
    <path id="path-17" opacity="1" fill-rule="evenodd" d="M704.4000000000002,127.09999999999991 L825.7000000000002,127.09999999999991 C847.6000000000001,127.09999999999991 865.4000000000001,144.89999999999992 865.4000000000001,166.79999999999993 C865.4000000000001,188.69999999999993 847.6000000000001,206.49999999999991 825.7,206.49999999999991 L704.4000000000002,206.49999999999991 C682.5000000000002,206.49999999999991 664.7000000000002,188.6999999999999 664.7000000000002,166.79999999999993 C664.7000000000002,144.79999999999993 682.5000000000001,127.09999999999994 704.4000000000002,127.09999999999991Z"/>
    <path id="path-18" opacity="1" fill-rule="evenodd" d="M711.9000000000003,188 L677.5000000000003,153.5 L677.5000000000003,222.5 L711.9000000000003,188Z"/>
    <ellipse id="ellipse-19" opacity="1" rx="10" ry="10" cx="724.1000000000003" cy="168.0999999999999"/>
    <ellipse id="ellipse-20" opacity="1" rx="10" ry="10" cx="765.1000000000003" cy="168.0999999999999"/>
    <ellipse id="ellipse-21" opacity="1" rx="10" ry="10" cx="806.0000000000003" cy="168.0999999999999"/>
    <path id="path-22" opacity="1" fill-rule="evenodd" d="M161.9000000000001,933.2999999999997 C176.80000000000007,926.8999999999997 188.4000000000001,916.9999999999998 188.4000000000001,888.4999999999998 C188.4000000000001,754.9999999999998 30.40000000000009,790.9999999999998 30.40000000000009,680.0999999999998 "/>
    <path id="path-23" opacity="1" fill-rule="evenodd" d="M58.200000000000074,679.4 C66.80000000000007,690.6 38.10000000000008,703.3 34.000000000000085,698 C29.90000000000009,692.7 49.10000000000008,667.5 58.200000000000074,679.4Z"/>
    <path id="path-24" opacity="1" fill-rule="evenodd" d="M198.20000000000016,483.1999999999999 C208.60000000000014,496.7999999999999 177.80000000000018,509.1999999999999 172.80000000000018,502.6999999999999 C167.80000000000018,496.1999999999999 187.00000000000017,468.59999999999985 198.20000000000016,483.1999999999999Z"/>
    <path id="path-25" opacity="1" fill-rule="evenodd" d="M189.80000000000018,539.3999999999999 C198.1000000000002,554.3999999999999 157.80000000000018,566.4999999999999 153.80000000000018,559.2999999999998 C149.80000000000018,552.0999999999998 181.00000000000017,523.2999999999998 189.80000000000018,539.3999999999999Z"/>
    <path id="path-26" opacity="1" fill-rule="evenodd" d="M192.19999999999982,582.1 C203.0999999999998,595.3000000000001 165.5999999999998,614.5 160.3999999999998,608.2 C155.19999999999982,601.9000000000001 180.5999999999998,567.9000000000001 192.19999999999982,582.1Z"/>
    <path id="path-27" opacity="1" fill-rule="evenodd" d="M205,630.0000000000001 C215.89999999999998,643.2000000000002 178.39999999999998,662.4000000000001 173.2,656.1000000000001 C168,649.8000000000002 193.39999999999998,615.9000000000001 205,630.0000000000001Z"/>
    <path id="path-28" opacity="1" fill-rule="evenodd" d="M216.20000000000016,674.7000000000002 C226.10000000000014,686.7000000000002 193.30000000000018,703.1000000000001 188.60000000000014,697.3000000000002 C183.9000000000001,691.5000000000002 205.60000000000014,661.8000000000002 216.20000000000016,674.7000000000002Z"/>
    <path id="path-29" opacity="1" fill-rule="evenodd" d="M231.20000000000016,723.5999999999998 C241.10000000000014,735.5999999999998 208.30000000000018,751.9999999999998 203.60000000000014,746.1999999999998 C198.9000000000001,740.3999999999999 220.60000000000014,710.6999999999998 231.20000000000016,723.5999999999998Z"/>
    <path id="path-30" opacity="1" fill-rule="evenodd" d="M3.8000000000000114,670.6 C7.400000000000006,657 35.10000000000002,671.8000000000001 33.400000000000006,678.4 C31.699999999999992,684.9999999999999 0,685.1999999999999 3.8000000000000114,670.6Z"/>
    <path id="path-31" opacity="1" fill-rule="evenodd" d="M3.3000000000000114,718.4999999999999 C1.5,704.5999999999999 32.80000000000001,707.9999999999999 33.60000000000002,714.6999999999999 C34.400000000000034,721.4 5.200000000000017,733.4999999999999 3.3000000000000114,718.4999999999999Z"/>
    <path id="path-32" opacity="1" fill-rule="evenodd" d="M30.900000000000176,762 C21.800000000000182,751.3 49.80000000000018,737 54.20000000000019,742.1 C58.60000000000019,747.2 40.70000000000019,773.4 30.900000000000176,762Z"/>
    <path id="path-33" opacity="1" fill-rule="evenodd" d="M65.59999999999991,785.5000000000001 C60.09999999999991,772.6000000000001 91.09999999999991,767.4000000000001 93.69999999999993,773.6000000000001 C96.29999999999995,779.8000000000002 71.39999999999992,799.3000000000002 65.59999999999991,785.5000000000001Z"/>
    <path id="path-34" opacity="1" fill-rule="evenodd" d="M112.09999999999991,809.9000000000002 C106.59999999999991,797.0000000000002 137.5999999999999,791.8000000000002 140.19999999999993,798.0000000000002 C142.79999999999995,804.2000000000003 117.99999999999994,823.7000000000003 112.09999999999991,809.9000000000002Z"/>
    <path id="path-35" opacity="1" fill-rule="evenodd" d="M147.00000000000017,845.3000000000002 C145.80000000000018,831.3000000000002 176.90000000000015,836.0000000000002 177.50000000000017,842.7000000000002 C178.1000000000002,849.4000000000001 148.30000000000018,860.3000000000002 147.00000000000017,845.3000000000002Z"/>
    <path id="path-36" opacity="1" fill-rule="evenodd" d="M73.30000000000007,709.5 C84.30000000000007,718.3 59.50000000000006,737.6 54.200000000000074,733.4 C48.90000000000009,729.1999999999999 61.500000000000085,700 73.30000000000007,709.5Z"/>
    <path id="path-37" opacity="1" fill-rule="evenodd" d="M98.2000000000001,734.5000000000001 C110.30000000000013,741.7000000000002 88.50000000000011,764.2000000000002 82.7000000000001,760.8000000000001 C76.90000000000009,757.4 85.30000000000013,726.9000000000001 98.2000000000001,734.5000000000001Z"/>
    <path id="path-38" opacity="1" fill-rule="evenodd" d="M143.9000000000001,759.1000000000001 C155.30000000000007,767.3000000000002 131.4000000000001,787.8000000000002 125.90000000000009,783.8000000000002 C120.40000000000009,779.8000000000002 131.7000000000001,750.3000000000002 143.9000000000001,759.1000000000001Z"/>
    <path id="path-39" opacity="1" fill-rule="evenodd" d="M164.7,938.5 C164.7,932.8 213.2,879.6 213.2,813.5 C213.2,705.7 153,651.7 153,574.7 C153,560.1 154.3,514.3000000000001 177.5,495.70000000000005 "/>
    <path id="path-40" opacity="1" fill-rule="evenodd" d="M230.60000000000008,1062.4 L142.20000000000005,1062.4 C138.10000000000002,1062.4 134.40000000000003,1059.8000000000002 133.10000000000002,1055.8000000000002 L89.10000000000002,922.5000000000002 C87.5,917.5000000000002 90.20000000000005,912.1000000000003 95.20000000000005,910.4000000000002 C96.20000000000005,910.1000000000003 97.20000000000005,909.9000000000002 98.20000000000005,909.9000000000002 L275.00000000000006,909.9000000000002 C280.30000000000007,909.9000000000002 284.6000000000001,914.2000000000002 284.6000000000001,919.5000000000002 C284.6000000000001,920.5000000000002 284.4000000000001,921.5000000000002 284.1000000000001,922.5000000000002 L239.7000000000001,1055.8000000000002 C238.30000000000013,1059.8000000000002 234.7000000000001,1062.4 230.60000000000008,1062.4Z"/>
    <path id="path-41" opacity="1" fill-rule="evenodd" d="M245.40000000000015,779.7000000000002 C250.60000000000014,794.4000000000002 214.20000000000016,798.6000000000001 211.80000000000013,791.6000000000001 C209.4000000000001,784.6000000000001 239.90000000000015,763.9000000000001 245.40000000000015,779.7000000000002Z"/>
    <path id="path-42" opacity="1" fill-rule="evenodd" d="M185.99999999999994,801.3000000000001 C197.49999999999994,790.9000000000001 215.49999999999994,822.8000000000001 209.89999999999992,827.8000000000001 C204.2999999999999,832.8000000000001 173.5999999999999,812.5000000000001 185.99999999999994,801.3000000000001Z"/>
    <path id="path-43" opacity="1" fill-rule="evenodd" d="M176.7,761.5 C184.3,748 211.39999999999998,772.6 207.8,779 C204.20000000000005,785.4 168.5,776 176.7,761.5Z"/>
    <path id="path-44" opacity="1" fill-rule="evenodd" d="M168.00000000000017,714.3000000000002 C175.6000000000002,700.8000000000002 202.70000000000016,725.4000000000002 199.1000000000002,731.8000000000002 C195.50000000000023,738.2000000000002 159.80000000000018,728.8000000000002 168.00000000000017,714.3000000000002Z"/>
    <path id="path-45" opacity="1" fill-rule="evenodd" d="M152.4999999999999,676.8 C157.4999999999999,662 188.69999999999987,681.0999999999999 186.2999999999999,688.1999999999999 C183.89999999999992,695.3 147.0999999999999,692.4999999999999 152.4999999999999,676.8Z"/>
    <path id="path-46" opacity="1" fill-rule="evenodd" d="M130.50000000000017,625 C137.80000000000018,611.2 165.50000000000017,635.1 162.00000000000017,641.7 C158.50000000000017,648.3000000000001 122.80000000000018,639.8000000000001 130.50000000000017,625Z"/>
    <path id="path-47" opacity="1" fill-rule="evenodd" d="M120.19999999999993,567.4000000000002 C128.69999999999993,554.4000000000002 154.19999999999993,580.7000000000002 150.0999999999999,586.9000000000002 C145.9999999999999,593.1000000000003 111.09999999999991,581.4000000000002 120.19999999999993,567.4000000000002Z"/>
    <path id="path-48" opacity="1" fill-rule="evenodd" d="M125.29999999999984,517.7999999999998 C133.79999999999984,504.79999999999984 159.29999999999984,531.0999999999998 155.19999999999982,537.2999999999998 C151.0999999999998,543.4999999999999 116.19999999999982,531.7999999999998 125.29999999999984,517.7999999999998Z"/>
    <path id="path-49" opacity="1" fill-rule="evenodd" d="M245.40000000000015,830.7 C250.60000000000014,845.4000000000001 214.20000000000016,849.6 211.80000000000013,842.6 C209.4000000000001,835.6 239.90000000000015,815 245.40000000000015,830.7Z"/>
  </defs>
  <g opacity="1">
    <g opacity="1">
      <g opacity="1">
        <use xlink:href="#path-1" fill="rgb(255,255,255)" fill-opacity="1"/>
      </g>
      <g opacity="1">
        <use xlink:href="#path-2" fill="rgb(86,202,216)" fill-opacity="1"/>
      </g>
      <g opacity="1">
        <use xlink:href="#path-3" fill="rgb(243,243,243)" fill-opacity="1"/>
      </g>
      <g opacity="1">
        <use xlink:href="#path-4" fill="rgb(116,213,222)" fill-opacity="1"/>
      </g>
      <g opacity="1">
        <use xlink:href="#path-5" fill="rgb(222,142,104)" fill-opacity="1"/>
      </g>
      <g opacity="1">
        <use xlink:href="#path-6" fill="rgb(252,196,134)" fill-opacity="1"/>
      </g>
      <g opacity="1">
        <use xlink:href="#path-7" fill="rgb(254,211,133)" fill-opacity="1"/>
      </g>
      <g opacity="1">
        <use xlink:href="#path-8" fill="rgb(222,142,104)" fill-opacity="1"/>
      </g>
      <g opacity="1">
        <use xlink:href="#path-9" fill="rgb(254,216,146)" fill-opacity="1"/>
      </g>
      <g opacity="1">
        <use xlink:href="#path-10" fill="rgb(222,142,104)" fill-opacity="1"/>
      </g>
      <g opacity="1">
        <use xlink:href="#ellipse-11" fill="rgb(222,142,104)" fill-opacity="1"/>
      </g>
      <g opacity="1">
        <use xlink:href="#ellipse-12" fill="rgb(222,142,104)" fill-opacity="1"/>
      </g>
      <g opacity="1">
        <use xlink:href="#path-13" fill="rgb(253,131,105)" fill-opacity="1"/>
      </g>
      <g opacity="1">
        <use xlink:href="#path-14" fill="rgb(254,211,133)" fill-opacity="1"/>
      </g>
      <g opacity="1">
        <use xlink:href="#ellipse-15" fill="rgb(253,131,105)" fill-opacity="1"/>
      </g>
      <g opacity="1">
        <use xlink:href="#path-16" fill="rgb(243,243,243)" fill-opacity="1"/>
      </g>
      <g opacity="1">
        <use xlink:href="#path-17" fill="rgb(116,213,222)" fill-opacity="1"/>
      </g>
      <g opacity="1">
        <use xlink:href="#path-18" fill="rgb(116,213,222)" fill-opacity="1"/>
      </g>
      <g opacity="1">
        <use xlink:href="#ellipse-19" fill="rgb(254,211,133)" fill-opacity="1"/>
      </g>
      <g opacity="1">
        <use xlink:href="#ellipse-20" fill="rgb(254,211,133)" fill-opacity="1"/>
      </g>
      <g opacity="1">
        <use xlink:href="#ellipse-21" fill="rgb(254,211,133)" fill-opacity="1"/>
      </g>
      <g opacity="1">
        <use xlink:href="#path-22" fill-opacity="0" stroke="rgb(116,213,222)" stroke-opacity="1" stroke-width="9"/>
      </g>
      <g opacity="1">
        <use xlink:href="#path-23" fill="rgb(116,213,222)" fill-opacity="1"/>
      </g>
      <g opacity="1">
        <use xlink:href="#path-24" fill="rgb(116,213,222)" fill-opacity="1"/>
      </g>
      <g opacity="1">
        <use xlink:href="#path-25" fill="rgb(116,213,222)" fill-opacity="1"/>
      </g>
      <g opacity="1">
        <use xlink:href="#path-26" fill="rgb(116,213,222)" fill-opacity="1"/>
      </g>
      <g opacity="1">
        <use xlink:href="#path-27" fill="rgb(116,213,222)" fill-opacity="1"/>
      </g>
      <g opacity="1">
        <use xlink:href="#path-28" fill="rgb(116,213,222)" fill-opacity="1"/>
      </g>
      <g opacity="1">
        <use xlink:href="#path-29" fill="rgb(116,213,222)" fill-opacity="1"/>
      </g>
      <g opacity="1">
        <use xlink:href="#path-30" fill="rgb(116,213,222)" fill-opacity="1"/>
      </g>
      <g opacity="1">
        <use xlink:href="#path-31" fill="rgb(116,213,222)" fill-opacity="1"/>
      </g>
      <g opacity="1">
        <use xlink:href="#path-32" fill="rgb(116,213,222)" fill-opacity="1"/>
      </g>
      <g opacity="1">
        <use xlink:href="#path-33" fill="rgb(116,213,222)" fill-opacity="1"/>
      </g>
      <g opacity="1">
        <use xlink:href="#path-34" fill="rgb(116,213,222)" fill-opacity="1"/>
      </g>
      <g opacity="1">
        <use xlink:href="#path-35" fill="rgb(116,213,222)" fill-opacity="1"/>
      </g>
      <g opacity="1">
        <use xlink:href="#path-36" fill="rgb(116,213,222)" fill-opacity="1"/>
      </g>
      <g opacity="1">
        <use xlink:href="#path-37" fill="rgb(116,213,222)" fill-opacity="1"/>
      </g>
      <g opacity="1">
        <use xlink:href="#path-38" fill="rgb(116,213,222)" fill-opacity="1"/>
      </g>
      <g opacity="1">
        <use xlink:href="#path-39" fill-opacity="0" stroke="rgb(116,213,222)" stroke-opacity="1" stroke-width="9"/>
      </g>
      <g opacity="1">
        <use xlink:href="#path-40" fill="rgb(253,131,105)" fill-opacity="1"/>
      </g>
      <g opacity="1">
        <use xlink:href="#path-41" fill="rgb(116,213,222)" fill-opacity="1"/>
      </g>
      <g opacity="1">
        <use xlink:href="#path-42" fill="rgb(116,213,222)" fill-opacity="1"/>
      </g>
      <g opacity="1">
        <use xlink:href="#path-43" fill="rgb(116,213,222)" fill-opacity="1"/>
      </g>
      <g opacity="1">
        <use xlink:href="#path-44" fill="rgb(116,213,222)" fill-opacity="1"/>
      </g>
      <g opacity="1">
        <use xlink:href="#path-45" fill="rgb(116,213,222)" fill-opacity="1"/>
      </g>
      <g opacity="1">
        <use xlink:href="#path-46" fill="rgb(116,213,222)" fill-opacity="1"/>
      </g>
      <g opacity="1">
        <use xlink:href="#path-47" fill="rgb(116,213,222)" fill-opacity="1"/>
      </g>
      <g opacity="1">
        <use xlink:href="#path-48" fill="rgb(116,213,222)" fill-opacity="1"/>
      </g>
      <g opacity="1">
        <use xlink:href="#path-49" fill="rgb(116,213,222)" fill-opacity="1"/>
      </g>
    </g>
  </g>
</svg>