<?xml version="1.0" encoding="utf-8"?>
<svg version="1.1" xmlns="http://www.w3.org/2000/svg" xmlns:xlink="http://www.w3.org/1999/xlink" height="872.5400000000002" width="846.79">
  <defs>
    <rect id="rect-1" opacity="1" x="0" y="0" width="553.1" height="553.1" rx="0" ry="0"/>
    <path id="path-2" opacity="1" fill-rule="evenodd" d="M342.75000000000017,57.41999999999996 L342.75000000000017,211.62999999999997 L439.89000000000016,211.62999999999997 "/>
    <ellipse id="ellipse-3" opacity="1" rx="292.89" ry="55.69" cx="553.9" cy="816.8500000000001"/>
    <path id="path-4" opacity="1" fill-rule="evenodd" d="M660.6700000000002,791.3200000000002 L660.6700000000002,811.0300000000001 L722.0500000000002,811.0300000000001 L722.0500000000002,802.3100000000001 L682.9500000000002,791.3200000000002 "/>
    <path id="path-5" opacity="1" fill-rule="evenodd" d="M407.88000000000017,786.57 L407.88000000000017,796.62 L414.27000000000015,803.63 L429.92000000000013,803.63 L435.91000000000014,812.85 L395.5600000000001,812.85 L380.3500000000001,788.28 L390.1800000000001,775 "/>
    <path id="path-6" opacity="1" fill-rule="evenodd" d="M610.3500000000001,489.51 C610.3500000000001,489.51 685.8700000000001,602.51 692.4500000000002,626.94 C699.0300000000002,651.3700000000001 682.9500000000002,791.32 682.9500000000002,791.32 L660.6700000000002,791.32 C660.6700000000002,791.32 643.8600000000002,690.5 648.6100000000002,655.0600000000001 C631.7900000000002,644.84 558.7900000000002,598.43 552.9000000000002,574.51 "/>
    <path id="path-7" opacity="1" fill-rule="evenodd" d="M610.3499999999999,489.51 C603.3499999999999,506.75 536.4699999999999,646.3 536.4699999999999,646.3 L407.88,786.57 L388.88,774.1500000000001 L475.78999999999996,638 L493.68999999999994,476.73 "/>
    <rect id="rect-8" opacity="1" x="315.55000000000024" y="546.3500000000001" width="178.59" height="95.36" rx="0" ry="0"/>
    <ellipse id="ellipse-9" opacity="1" rx="27.07" ry="27.07" cx="404.84000000000015" cy="547.2900000000001"/>
    <path id="path-10" opacity="1" fill-rule="evenodd" d="M656.0999999999999,355.6000000000001 C658.0999999999999,359.8300000000001 664.1499999999999,389.6000000000001 663.9499999999999,406.4800000000001 C674.1999999999999,411.91 732.9499999999999,459.88000000000005 740.16,463.79 C750.65,469.49000000000007 754.16,469.49000000000007 755.04,470.15000000000003 C753.18,473.4800000000001 744.26,488.39000000000004 744.26,488.39000000000004 C744.26,488.39000000000004 735.74,480.8 731.62,479.2 C727.5,477.59999999999997 667.99,449.52000000000004 636.44,424.2 C631.0200000000001,419.84999999999997 624.33,404.49999999999994 623.9300000000001,400.09999999999997 C623.5300000000001,395.7 624.99,360.29999999999995 624.99,360.29999999999995 L656.0999999999999,355.6000000000001Z"/>
    <path id="path-11" opacity="1" fill-rule="evenodd" d="M482.26000000000005,340.40999999999997 C479.2000000000001,344.09 438.64000000000004,385.34999999999997 427.87000000000006,408.41 C417.1000000000001,431.4700000000001 413.51000000000005,459.2 409.79,471.99999999999994 C404.93,488.5499999999999 392.59999999999997,507.8999999999999 392.59999999999997,518.47 C392.59999999999997,524.1399999999999 399.21,533.01 403.93,533.01 C408.65000000000003,533.01 420.58,532.23 423.19,515.0699999999999 C427.27000000000004,488.2899999999999 444.71999999999997,445.57999999999987 451.89000000000004,436.70999999999987 C459.0600000000001,427.83999999999986 516.8900000000001,366.83999999999986 519.31,362.4999999999999 C521.73,358.1599999999999 492.26000000000005,328.3199999999999 482.26000000000005,340.40999999999997Z"/>
    <path id="path-12" opacity="1" fill-rule="evenodd" d="M603.42,284.26 C622.9499999999999,277.01 666.5999999999999,348.81 659.25,355.65999999999997 C651.9000000000001,362.50999999999993 609.55,378.88 601.92,372.88 C594.29,366.88 582.79,291.90999999999997 603.42,284.26Z"/>
    <path id="path-13" opacity="1" fill-rule="evenodd" d="M583.5799999999999,270.85999999999996 C670.79,280.69999999999993 621.18,452.99999999999994 610.3499999999999,489.50999999999993 C591.3499999999999,498.09999999999997 501.0799999999999,494.71 493.68999999999994,476.72999999999996 C490.78999999999996,454.08 502.5799999999999,265.04999999999995 583.5799999999999,270.85999999999996Z"/>
    <path id="path-14" opacity="1" fill-rule="evenodd" d="M599.1500000000001,288.25000000000006 C599.1500000000001,293.50000000000006 572.7900000000001,293.78000000000003 572.7900000000001,288.25000000000006 L572.7900000000001,249.43000000000006 L599.1500000000001,249.43000000000006 L599.1500000000001,288.25000000000006Z"/>
    <path id="path-15" opacity="1" fill-rule="evenodd" d="M594.5599999999997,174.24 C578.3699999999997,174.24 565.2499999999998,194.78000000000003 565.2499999999998,220.12 C565.2499999999998,221.5 565.2499999999998,222.85000000000002 565.3699999999998,224.2 C562.9288238521423,225.17415730502938 561.4657064427327,227.68657630916533 561.8231576675831,230.29052562926813 C562.1806088924336,232.89447494937087 564.2666204372877,234.91969534251245 566.8799999999998,235.2 C570.8799999999998,253.14 581.7499999999998,266.01 594.5599999999997,266.01 C610.7399999999997,266.01 623.8599999999997,245.46999999999997 623.8599999999997,220.13 C623.8599999999997,194.79000000000002 610.7899999999996,174.24 594.5599999999997,174.24Z"/>
    <path id="path-16" opacity="1" fill-rule="evenodd" d="M593.2899999999997,167.5 C583.2899999999997,167.5 559.2899999999997,175.5 549.2899999999997,175.5 C521.1799999999997,175.5 521.8699999999998,165.5 493.28999999999974,165.5 C478.28999999999974,165.5 461.4499999999997,175.32999999999998 442.28999999999974,183.5 C422.38999999999976,191.98000000000002 396.28999999999974,190.62 396.28999999999974,226.5 C396.28999999999974,238.5 400.0599999999997,277.5 441.28999999999974,277.5 C471.38999999999976,277.5 500.4499999999997,250.5 528.2899999999997,250.5 C539.8499999999997,250.5 548.4499999999997,253.5 558.2899999999997,253.5 C564.2899999999997,253.5 571.2899999999997,252.5 573.2899999999997,250.5 L573.2899999999997,233.5 C573.2899999999997,233.5 571.9799999999998,234.5 567.2899999999997,234.5 C565.2899999999997,234.5 563.2899999999997,230.5 563.2899999999997,228.5 C563.2899999999997,218 618.2899999999997,212.89 618.2899999999997,193.5 C619.8299999999997,196.20999999999998 622.0399999999997,203.61 622.4099999999997,205.83999999999997 C624.1399999999998,203.58999999999997 627.5299999999997,199.83999999999997 627.5299999999997,193.02999999999997 C627.5299999999997,179.22999999999996 616.6899999999997,167.5 593.2899999999997,167.5Z"/>
    <path id="path-17" opacity="1" fill-rule="evenodd" d="M547.5200000000002,285.71999999999997 C565.2800000000002,296.59 535.8300000000002,375.28 525.9000000000002,373.71999999999997 C515.9700000000003,372.15999999999997 476.9000000000002,349.01 476.9000000000002,339.31 C476.9000000000002,329.61 528.7900000000002,274.25 547.5200000000002,285.71999999999997Z"/>
    <ellipse id="ellipse-18" opacity="1" rx="12.25" ry="12.25" cx="752.8800000000001" cy="481.77"/>
    <path id="path-19" opacity="1" fill-rule="evenodd" d="M211.8499999999998,63.53 C257.1416910387805,91.44291150391925 274.9187666058523,148.47682763280983 253.50791930013708,197.1804571015603 C232.0970719944218,245.88408657031084 178.05410358473955,271.34483224251744 126.8663010960442,256.84390874929454 C75.67849860734879,242.34298525607164 43.01908978751271,192.32044013636067 50.33385840749537,139.62355155824713 C57.64862702747797,86.92666298013361 102.69785915290402,47.69072677842968 155.8999999999998,47.680000000000064 L155.8999999999998,154.26999999999998 L211.8499999999998,63.53Z"/>
    <path id="path-20" opacity="1" fill-rule="evenodd" d="M153.9000000000001,158.26999999999998 L260.49000000000007,158.26999999999998 "/>
    <path id="path-21" opacity="1" fill-rule="evenodd" d="M342.7900000000002,133.91999999999996 C345.3000000000002,133.91999999999996 353.6400000000002,109.45999999999995 370.47000000000014,109.45999999999995 C385.32000000000016,109.45999999999995 377.96000000000015,160.35999999999996 408.3600000000001,160.35999999999996 C432.6800000000002,160.35999999999996 439.19000000000017,126.98999999999995 448.6600000000001,126.98999999999995 C453.6100000000001,126.98999999999995 453.33000000000004,130.66999999999996 458.2800000000001,130.66999999999996 C470.2800000000001,130.66999999999996 471.9900000000001,82.30999999999995 489.10000000000014,82.30999999999995 "/>
    <path id="path-22" opacity="1" fill-rule="evenodd" d="M60.659999999999854,499.21000000000004 L122.37999999999982,437.49 L155.00999999999988,470.11 L282.45999999999987,342.66 L306.55999999999983,366.77 L375.02999999999986,298.29 L421.67999999999984,344.94 L505.2399999999999,261.38 "/>
  </defs>
  <g opacity="1">
    <g opacity="1">
      <g opacity="1">
        <use xlink:href="#rect-1" fill="rgb(248,248,248)" fill-opacity="1"/>
      </g>
      <g opacity="1">
        <use xlink:href="#path-2" fill-opacity="0" stroke="rgb(174,178,192)" stroke-opacity="1" stroke-width="5"/>
      </g>
      <g opacity="1">
        <use xlink:href="#ellipse-3" fill="rgb(239,239,239)" fill-opacity="1"/>
      </g>
      <g opacity="1">
        <use xlink:href="#path-4" fill="rgb(0,0,0)" fill-opacity="1"/>
      </g>
      <g opacity="1">
        <use xlink:href="#path-5" fill="rgb(0,0,0)" fill-opacity="1"/>
      </g>
      <g opacity="1">
        <use xlink:href="#path-6" fill="rgb(86,202,216)" fill-opacity="1"/>
      </g>
      <g opacity="1">
        <use xlink:href="#path-7" fill="rgb(116,213,222)" fill-opacity="1"/>
      </g>
      <g opacity="1">
        <use xlink:href="#rect-8" fill="rgb(253,131,105)" fill-opacity="1"/>
      </g>
      <g opacity="1">
        <use xlink:href="#ellipse-9" fill-opacity="0" stroke="rgb(253,131,105)" stroke-opacity="1" stroke-width="9"/>
      </g>
      <g opacity="1">
        <use xlink:href="#path-10" fill="rgb(222,142,104)" fill-opacity="1"/>
      </g>
      <g opacity="1">
        <use xlink:href="#path-11" fill="rgb(222,142,104)" fill-opacity="1"/>
      </g>
      <g opacity="1">
        <use xlink:href="#path-12" fill="rgb(249,200,122)" fill-opacity="1"/>
      </g>
      <g opacity="1">
        <use xlink:href="#path-13" fill="rgb(254,211,133)" fill-opacity="1"/>
      </g>
      <g opacity="1">
        <use xlink:href="#path-14" fill="rgb(211,124,89)" fill-opacity="1"/>
      </g>
      <g opacity="1">
        <use xlink:href="#path-15" fill="rgb(222,142,104)" fill-opacity="1"/>
      </g>
      <g opacity="1">
        <use xlink:href="#path-16" fill="rgb(0,0,0)" fill-opacity="1"/>
      </g>
      <g opacity="1">
        <use xlink:href="#path-17" fill="rgb(254,216,146)" fill-opacity="1"/>
      </g>
      <g opacity="1">
        <use xlink:href="#ellipse-18" fill="rgb(222,142,104)" fill-opacity="1"/>
      </g>
      <g opacity="1">
        <use xlink:href="#path-19" fill-opacity="0" stroke="rgb(174,178,192)" stroke-opacity="1" stroke-width="5"/>
      </g>
      <g opacity="1">
        <use xlink:href="#path-20" fill-opacity="0" stroke="rgb(174,178,192)" stroke-opacity="1" stroke-width="5"/>
      </g>
      <g opacity="1">
        <use xlink:href="#path-21" fill-opacity="0" stroke="rgb(174,178,192)" stroke-opacity="1" stroke-width="5"/>
      </g>
      <g opacity="1">
        <use xlink:href="#path-22" fill-opacity="0" stroke="rgb(174,178,192)" stroke-opacity="1" stroke-width="5"/>
      </g>
    </g>
  </g>
</svg>