<?xml version="1.0" encoding="utf-8"?>
<svg version="1.1" xmlns="http://www.w3.org/2000/svg" xmlns:xlink="http://www.w3.org/1999/xlink" height="825.5900268554688" width="816.8400000000001">
  <defs>
    <path id="path-1" opacity="1" fill-rule="evenodd" d="M582.1100000000001,105.67 C627.1100000000001,146.1 656.5600000000002,202.51 703.8400000000001,283.59 C751.3400000000001,364.66999999999996 816.8400000000001,470.40999999999997 792,533.45 C767.1600000000001,596.4900000000001 651.54,616.8100000000001 542.3700000000001,658.1500000000001 C433.20000000000005,699.4900000000001 330.4200000000001,761.6100000000001 235.87000000000006,749.5000000000001 C141.32000000000005,737.3900000000001 55.00000000000008,651.07 33.29000000000008,555.6 C11.36000000000007,459.9 53.840000000000074,355.07000000000005 84.44000000000007,259.6 C114.82000000000006,164.14 133.32000000000005,78 186.5300000000001,39 C239.74000000000012,0 327.68000000000006,8.379999999999997 402.14000000000004,24.59 C476.5900000000001,41 537.1100000000001,65.25 582.1100000000001,105.67Z"/>
    <path id="path-2" opacity="1" fill-rule="evenodd" d="M139.77999877929688,785.780029296875 L171.0800018310547,785.780029296875 L171.0800018310547,746.280029296875 L139.77999877929688,746.280029296875 L139.77999877929688,623.52001953125 L108.4800033569336,623.52001953125 L0,771.780029296875 L0,785.780029296875 L93.88999938964844,785.780029296875 L93.88999938964844,822.8500366210938 L139.77999877929688,822.8500366210938 L139.77999877929688,785.780029296875 L93.88999938964844,700.0900268554688 L93.88999938964844,746.280029296875 L61.08000183105469,746.280029296875 L93.88999938964844,700.0900268554688 L139.77999877929688,785.780029296875Z"/>
    <path id="path-3" opacity="1" fill-rule="evenodd" d="M272.21002197265625,620.780029296875 C213.92001342773438,620.780029296875 197.2100067138672,666.06005859375 197.2100067138672,723.4900512695312 C197.2100067138672,780.6199951171875 213.92001342773438,825.5900268554688 272.21002197265625,825.5900268554688 C330.25,825.5900268554688 346.3500061035156,780.6199951171875 346.3500061035156,723.4900512695312 C346.3500061035156,666.06005859375 330.21002197265625,620.780029296875 272.21002197265625,620.780029296875 L272.2599792480469,662.1099853515625 C293.8299865722656,662.1099853515625 300.5199890136719,688.8499755859375 300.5199890136719,723.489990234375 C300.5199890136719,757.8200073242188 293.8299865722656,784 272.2599792480469,783.9599609375 C250.37998962402344,783.9599609375 242.7899932861328,757.8200073242188 242.7899932861328,723.489990234375 C242.7899932861328,688.8499755859375 250.37998962402344,662.1099853515625 272.2599792480469,662.1099853515625 L272.21002197265625,620.780029296875Z"/>
    <path id="path-4" opacity="1" fill-rule="evenodd" d="M503.79998779296875,785.780029296875 L535.0999755859375,785.780029296875 L535.0999755859375,746.280029296875 L503.79998779296875,746.280029296875 L503.79998779296875,623.52001953125 L472.5,623.52001953125 L364,771.780029296875 L364,785.780029296875 L457.91998291015625,785.780029296875 L457.91998291015625,822.8500366210938 L503.79998779296875,822.8500366210938 L503.79998779296875,785.780029296875 L457.9200134277344,700.0900268554688 L457.9200134277344,746.280029296875 L425.1000061035156,746.280029296875 L457.9200134277344,700.0900268554688 L503.79998779296875,785.780029296875Z"/>
    <rect id="rect-5" opacity="1" x="536.7300000000001" y="772.2999999999998" width="17.01" height="14.4" rx="0" ry="0"/>
    <path id="path-6" opacity="1" fill-rule="evenodd" d="M555.35,784.4499999999995 L555.35,798.8499999999995 L514.88,798.8499999999995 L514.88,793.6099999999994 L535.93,784.4499999999995 L555.35,784.4499999999995Z"/>
    <rect id="rect-7" opacity="1" x="272.34000000000003" y="595.6599999999995" width="17.01" height="14.4" rx="0" ry="0"/>
    <path id="path-8" opacity="1" fill-rule="evenodd" d="M290.95,607.8000000000006 L290.95,622.2000000000007 L250.49,622.2000000000007 L250.49,616.9700000000007 L271.54,607.8000000000006 L290.95,607.8000000000006Z"/>
    <path id="path-9" opacity="1" fill-rule="evenodd" d="M536.15,415.21000000000043 C537.01,423.39000000000044 555.0799999999999,776.1000000000004 555.0799999999999,776.1000000000004 L536.15,776.1000000000004 L444.1,444.00000000000045 L536.15,415.21000000000043Z"/>
    <path id="path-10" opacity="1" fill-rule="evenodd" d="M545.8700000000001,376.35 C545.8700000000001,424.25 528.2600000000001,467.35 492.6100000000001,467.35 C443.67000000000013,467.35 378.8800000000001,436.15000000000003 361.0500000000001,418.54 C356.60000000000014,431.70000000000005 293.48000000000013,597.46 293.48000000000013,597.46 L267.34000000000015,597.46 C267.34000000000015,597.46 284.09000000000015,404.46000000000004 315.4900000000001,354.96000000000004 C325.8200000000001,341.20000000000005 410.1200000000001,344.64000000000004 452.71000000000015,354.96000000000004 C495.3000000000002,365.28000000000003 545.8700000000001,376.35 545.8700000000001,376.35Z"/>
    <path id="path-11" opacity="1" fill-rule="evenodd" d="M419.46,97.25999999999982 C420.074028386471,94.19700435980437 422.8868231952075,92.08095688901176 426.00000000000006,92.33999999999982 C429.83,92.60999999999981 436.09,102.72999999999982 436.09,110.91999999999982 C436.09,119.10999999999981 433.78,122.18999999999981 434.47999999999996,128.13999999999982 C435.17999999999995,134.0899999999998 450.33,214.76999999999978 450.33,219.68999999999983 C454.15,219.9599999999998 467.82,218.04999999999984 467.82,218.04999999999984 L458.25,256.5899999999998 L430.39,256.5899999999998 L412.39,101.35999999999983 L419.46,97.25999999999982Z"/>
    <path id="path-12" opacity="1" fill-rule="evenodd" d="M446.1800000000001,110.99999999999963 L440.3100000000001,134.71999999999963 C440.3100000000001,134.71999999999963 382.4000000000001,127.98999999999963 376.0800000000001,126.42999999999964 C369.7600000000001,124.86999999999966 379.2800000000001,85.64999999999964 385.7700000000001,87.24999999999963 C392.2600000000001,88.84999999999962 446.1800000000001,110.99999999999963 446.1800000000001,110.99999999999963Z"/>
    <path id="path-13" opacity="1" fill-rule="evenodd" d="M499.24,181.17000000000007 C573.32,181.17000000000007 555.05,372.56000000000006 546.4,379.72000000000014 C537.75,386.8800000000002 445.65,362.72000000000014 438,352.06000000000006 C430.35,341.40000000000003 444.91,181.1700000000001 499.24,181.17000000000007Z"/>
    <path id="path-14" opacity="1" fill-rule="evenodd" d="M472.8000000000002,229.76 C468.7300000000002,231.14 444.8600000000002,240.45 444.8600000000002,240.45 C444.4600000000002,235.64999999999998 426.1100000000002,140.45 424.9800000000002,134.62 C427.2957995292611,128.8009598436384 428.4409921495743,122.58225807754599 428.3500000000002,116.32000000000001 C428.3500000000002,100.69 422.00000000000017,88 414.1700000000002,88 C406.3400000000002,88 400.00000000000017,100.69 400.00000000000017,116.32 C399.88886916671487,122.8619962612759 401.14926448760735,129.3547354007921 403.7000000000002,135.38000000000017 C402.82000000000016,147.28 394.9200000000002,260.27 411.04000000000013,276.38 C428.04000000000013,293.38 469.3700000000001,278.05 494.4900000000001,266.63 C499.8700000000001,264.77 492.54000000000013,224.42 472.8000000000002,229.76Z"/>
    <rect id="rect-15" opacity="1" x="438.44000000000017" y="118.64000000000033" width="15.5" height="10.83" rx="0" ry="0"/>
    <path id="path-16" opacity="1" fill-rule="evenodd" d="M546.45,216.33 C557.74,238.25 513.0300000000001,277.74 500.66,274.8 C488.28999999999996,271.86 468.34000000000003,227.72000000000003 472.07000000000005,219.8 C475.80000000000007,211.88 535.47,195 546.45,216.33Z"/>
    <path id="path-17" opacity="1" fill-rule="evenodd" d="M503.78,199.72 C503.78,203.43 481.15,204.37 481.15,199.72 L481.15,157 L503.78,157 L503.78,199.72Z"/>
    <ellipse id="ellipse-18" opacity="1" rx="29.54" ry="47.77" cx="484.29000000000013" cy="134.03000000000023"/>
    <path id="path-19" opacity="1" fill-rule="evenodd" d="M462.16000000000014,102.38000000000041 C461.7018677499308,109.36554486655166 465.0466847567175,116.0551788801251 470.91000000000014,119.88000000000041 C479.72000000000014,125.88000000000041 486.0000000000001,123.2300000000004 492.46000000000015,128.8800000000004 C495.8700000000002,132.29000000000042 504.22000000000014,138.8800000000004 504.3000000000001,149.0600000000004 C504.3000000000001,156.59000000000043 506.77000000000015,160.39000000000044 508.9400000000001,160.39000000000044 C511.11000000000007,160.39000000000044 516.8300000000002,158.89000000000044 520.5100000000001,158.89000000000044 C556.6500000000001,158.89000000000044 599.0900000000001,196.20000000000044 680.5100000000001,196.20000000000044 C723.0400000000001,196.20000000000044 789.7800000000001,185.47000000000043 789.7800000000001,123.01000000000043 C789.7800000000001,89.28000000000044 777.6400000000001,48.52000000000044 713.4700000000001,48.52000000000044 C672.7200000000001,48.52000000000044 644.1700000000002,68.52000000000044 610.6900000000002,68.52000000000044 C567.6900000000002,68.52000000000044 551.1100000000001,52.950000000000436 521.4000000000002,52.950000000000436 C500.2400000000002,52.950000000000436 452.62000000000023,65.21000000000043 452.62000000000023,97.33000000000044 C452.62000000000023,109.53000000000044 456.4400000000002,113.07000000000043 457.62000000000023,113.70000000000044 C458.0000000000002,112.36000000000044 460.3300000000002,105.44000000000044 462.16000000000014,102.38000000000041Z"/>
    <ellipse id="ellipse-20" opacity="1" rx="7.54" ry="7.54" cx="501.26000000000016" cy="145.34000000000017"/>
  </defs>
  <g opacity="1">
    <g opacity="1">
      <g opacity="1">
        <g opacity="1">
          <g opacity="1">
            <use xlink:href="#path-1" fill="rgb(248,248,248)" fill-opacity="1"/>
          </g>
          <g opacity="1">
            <use xlink:href="#path-2" fill="rgb(253,131,105)" fill-opacity="1"/>
          </g>
          <g opacity="1">
            <use xlink:href="#path-3" fill="rgb(253,131,105)" fill-opacity="1"/>
          </g>
          <g opacity="1">
            <use xlink:href="#path-4" fill="rgb(253,131,105)" fill-opacity="1"/>
          </g>
          <g opacity="1">
            <use xlink:href="#rect-5" fill="rgb(222,142,104)" fill-opacity="1"/>
          </g>
          <g opacity="1">
            <use xlink:href="#path-6" fill="rgb(0,0,0)" fill-opacity="1"/>
          </g>
          <g opacity="1">
            <use xlink:href="#rect-7" fill="rgb(222,142,104)" fill-opacity="1"/>
          </g>
          <g opacity="1">
            <use xlink:href="#path-8" fill="rgb(0,0,0)" fill-opacity="1"/>
          </g>
          <g opacity="1">
            <use xlink:href="#path-9" fill="rgb(86,202,216)" fill-opacity="1"/>
          </g>
          <g opacity="1">
            <use xlink:href="#path-10" fill="rgb(116,213,222)" fill-opacity="1"/>
          </g>
          <g opacity="1">
            <use xlink:href="#path-11" fill="rgb(211,124,89)" fill-opacity="1"/>
          </g>
          <g opacity="1">
            <use xlink:href="#path-12" fill="rgb(0,0,0)" fill-opacity="1"/>
          </g>
          <g opacity="1">
            <use xlink:href="#path-13" fill="rgb(254,211,133)" fill-opacity="1"/>
          </g>
          <g opacity="1">
            <use xlink:href="#path-14" fill="rgb(222,142,104)" fill-opacity="1"/>
          </g>
          <g transform="translate(446.19000000000017, 124.05500000000033) rotate(14.00000500589834) translate(-446.19000000000017, -124.05500000000033)" opacity="1">
            <use xlink:href="#rect-15" fill="rgb(0,0,0)" fill-opacity="1"/>
          </g>
          <g opacity="1">
            <use xlink:href="#path-16" fill="rgb(254,216,146)" fill-opacity="1"/>
          </g>
          <g opacity="1">
            <use xlink:href="#path-17" fill="rgb(211,124,89)" fill-opacity="1"/>
          </g>
          <g opacity="1">
            <use xlink:href="#ellipse-18" fill="rgb(220,142,108)" fill-opacity="1"/>
          </g>
          <g opacity="1">
            <use xlink:href="#path-19" fill="rgb(0,0,0)" fill-opacity="1"/>
          </g>
          <g opacity="1">
            <use xlink:href="#ellipse-20" fill="rgb(220,142,108)" fill-opacity="1"/>
          </g>
        </g>
      </g>
    </g>
  </g>
</svg>